<?xml version="1.0" encoding="UTF-8" standalone="no"?><!DOCTYPE score-partwise PUBLIC "-//Recordare//DTD MusicXML 3.1 Partwise//EN" "http://www.musicxml.org/dtds/partwise.dtd"><score-partwise version="3.1"><work><work-title>Band Set Draft</work-title></work><part-list><score-part id="P1"><part-name>Chord Guide</part-name></score-part><score-part id="P2"><part-name>Lead</part-name></score-part><score-part id="P3"><part-name>Flute</part-name></score-part><score-part id="P4"><part-name>Whistle</part-name></score-part><score-part id="P5"><part-name>Concertina</part-name></score-part><score-part id="P6"><part-name>Piano</part-name></score-part><score-part id="P7"><part-name>Strings</part-name></score-part><score-part id="P8"><part-name>Synth</part-name></score-part><score-part id="P9"><part-name>Bass</part-name></score-part></part-list><part id="P1"><measure number="1"><attributes><divisions>12</divisions><key><fifths>2</fifths></key><time><beats>4</beats><beat-type>4</beat-type></time><clef><sign>G</sign><line>2</line></clef></attributes><direction placement="above"><direction-type><words>Intro Pocket (intro, 8 bars)</words></direction-type></direction><harmony><root><root-step>D</root-step></root><kind>major</kind></harmony><note><rest/><duration>48</duration><voice>1</voice></note></measure><measure number="2"><harmony><root><root-step>C</root-step></root><kind>major</kind></harmony><note><rest/><duration>48</duration><voice>1</voice></note></measure><measure number="3"><harmony><root><root-step>C</root-step></root><kind>major</kind></harmony><note><rest/><duration>48</duration><voice>1</voice></note></measure><measure number="4"><harmony><root><root-step>C</root-step></root><kind>major</kind></harmony><note><rest/><duration>48</duration><voice>1</voice></note></measure><measure number="5"><harmony><root><root-step>D</root-step></root><kind>major</kind></harmony><note><rest/><duration>48</duration><voice>1</voice></note></measure><measure number="6"><harmony><root><root-step>C</root-step></root><kind>major</kind></harmony><note><rest/><duration>48</duration><voice>1</voice></note></measure><measure number="7"><harmony><root><root-step>G</root-step></root><kind>major</kind></harmony><note><rest/><duration>48</duration><voice>1</voice></note></measure><measure number="8"><harmony><root><root-step>C</root-step></root><kind>major</kind></harmony><note><rest/><duration>48</duration><voice>1</voice></note></measure><measure number="9"><direction placement="above"><direction-type><words>Interstitial Pocket (interstitial, 4 bars)</words></direction-type></direction><harmony><root><root-step>D</root-step></root><kind>major</kind></harmony><note><rest/><duration>48</duration><voice>1</voice></note></measure><measure number="10"><harmony><root><root-step>C</root-step></root><kind>major</kind></harmony><note><rest/><duration>48</duration><voice>1</voice></note></measure><measure number="11"><harmony><root><root-step>A</root-step></root><kind>major</kind></harmony><note><rest/><duration>48</duration><voice>1</voice></note></measure><measure number="12"><harmony><root><root-step>C</root-step></root><kind>major</kind></harmony><note><rest/><duration>48</duration><voice>1</voice></note></measure><measure number="13"><direction placement="above"><direction-type><words>Interstitial Pocket (interstitial, 4 bars)</words></direction-type></direction><harmony><root><root-step>D</root-step></root><kind>major</kind></harmony><note><rest/><duration>48</duration><voice>1</voice></note></measure><measure number="14"><harmony><root><root-step>C</root-step></root><kind>major</kind></harmony><note><rest/><duration>48</duration><voice>1</voice></note></measure><measure number="15"><harmony><root><root-step>A</root-step></root><kind>major</kind></harmony><note><rest/><duration>48</duration><voice>1</voice></note></measure><measure number="16"><harmony><root><root-step>C</root-step></root><kind>major</kind></harmony><note><rest/><duration>48</duration><voice>1</voice></note></measure><measure number="17"><direction placement="above"><direction-type><words>Break Pocket (break, 16 bars)</words></direction-type></direction><harmony><root><root-step>D</root-step></root><kind>major</kind></harmony><note><rest/><duration>48</duration><voice>1</voice></note></measure><measure number="18"><harmony><root><root-step>C</root-step></root><kind>major</kind></harmony><note><rest/><duration>48</duration><voice>1</voice></note></measure><measure number="19"><harmony><root><root-step>C</root-step></root><kind>major</kind></harmony><note><rest/><duration>48</duration><voice>1</voice></note></measure><measure number="20"><harmony><root><root-step>C</root-step></root><kind>major</kind></harmony><note><rest/><duration>48</duration><voice>1</voice></note></measure><measure number="21"><harmony><root><root-step>D</root-step></root><kind>major</kind></harmony><note><rest/><duration>48</duration><voice>1</voice></note></measure><measure number="22"><harmony><root><root-step>C</root-step></root><kind>major</kind></harmony><note><rest/><duration>48</duration><voice>1</voice></note></measure><measure number="23"><harmony><root><root-step>G</root-step></root><kind>major</kind></harmony><note><rest/><duration>48</duration><voice>1</voice></note></measure><measure number="24"><harmony><root><root-step>C</root-step></root><kind>major</kind></harmony><note><rest/><duration>48</duration><voice>1</voice></note></measure><measure number="25"><harmony><root><root-step>D</root-step></root><kind>major</kind></harmony><note><rest/><duration>48</duration><voice>1</voice></note></measure><measure number="26"><harmony><root><root-step>C</root-step></root><kind>major</kind></harmony><note><rest/><duration>48</duration><voice>1</voice></note></measure><measure number="27"><harmony><root><root-step>A</root-step></root><kind>major</kind></harmony><note><rest/><duration>48</duration><voice>1</voice></note></measure><measure number="28"><harmony><root><root-step>C</root-step></root><kind>major</kind></harmony><note><rest/><duration>48</duration><voice>1</voice></note></measure><measure number="29"><harmony><root><root-step>D</root-step></root><kind>major</kind></harmony><note><rest/><duration>48</duration><voice>1</voice></note></measure><measure number="30"><harmony><root><root-step>C</root-step></root><kind>major</kind></harmony><note><rest/><duration>48</duration><voice>1</voice></note></measure><measure number="31"><harmony><root><root-step>A</root-step></root><kind>major</kind></harmony><note><rest/><duration>48</duration><voice>1</voice></note></measure><measure number="32"><harmony><root><root-step>C</root-step></root><kind>major</kind></harmony><note><rest/><duration>48</duration><voice>1</voice></note></measure><measure number="33"><direction placement="above"><direction-type><words>Change Pocket (change, 2 bars)</words></direction-type></direction><harmony><root><root-step>D</root-step></root><kind>major</kind></harmony><note><rest/><duration>48</duration><voice>1</voice></note></measure><measure number="34"><harmony><root><root-step>C</root-step></root><kind>major</kind></harmony><note><rest/><duration>48</duration><voice>1</voice></note></measure><measure number="35"><direction placement="above"><direction-type><words>Outro Pocket (outro, 4 bars)</words></direction-type></direction><harmony><root><root-step>C</root-step></root><kind>major</kind></harmony><note><rest/><duration>48</duration><voice>1</voice></note></measure><measure number="36"><harmony><root><root-step>C</root-step></root><kind>major</kind></harmony><note><rest/><duration>48</duration><voice>1</voice></note></measure><measure number="37"><harmony><root><root-step>D</root-step></root><kind>major</kind></harmony><note><rest/><duration>48</duration><voice>1</voice></note></measure><measure number="38"><harmony><root><root-step>C</root-step></root><kind>major</kind></harmony><note><rest/><duration>48</duration><voice>1</voice></note></measure></part><part id="P2"><measure number="1"><attributes><divisions>12</divisions><key><fifths>2</fifths></key><time><beats>4</beats><beat-type>4</beat-type></time><clef><sign>G</sign><line>2</line></clef></attributes><direction placement="above"><direction-type><words>Intro Pocket (intro, 8 bars)</words></direction-type></direction><note><pitch><step>D</step><octave>4</octave></pitch><duration>48</duration><voice>1</voice></note></measure><measure number="2"><note><pitch><step>C</step><octave>4</octave></pitch><duration>48</duration><voice>1</voice></note></measure><measure number="3"><note><pitch><step>C</step><octave>4</octave></pitch><duration>48</duration><voice>1</voice></note></measure><measure number="4"><note><pitch><step>C</step><octave>4</octave></pitch><duration>48</duration><voice>1</voice></note></measure><measure number="5"><note><pitch><step>D</step><octave>4</octave></pitch><duration>48</duration><voice>1</voice></note></measure><measure number="6"><note><pitch><step>C</step><octave>4</octave></pitch><duration>48</duration><voice>1</voice></note></measure><measure number="7"><note><pitch><step>G</step><octave>4</octave></pitch><duration>48</duration><voice>1</voice></note></measure><measure number="8"><note><pitch><step>C</step><octave>4</octave></pitch><duration>48</duration><voice>1</voice></note></measure><measure number="9"><direction placement="above"><direction-type><words>Interstitial Pocket (interstitial, 4 bars)</words></direction-type></direction><note><pitch><step>D</step><octave>4</octave></pitch><duration>48</duration><voice>1</voice></note></measure><measure number="10"><note><pitch><step>C</step><octave>4</octave></pitch><duration>48</duration><voice>1</voice></note></measure><measure number="11"><note><pitch><step>A</step><octave>4</octave></pitch><duration>48</duration><voice>1</voice></note></measure><measure number="12"><note><pitch><step>C</step><octave>4</octave></pitch><duration>48</duration><voice>1</voice></note></measure><measure number="13"><direction placement="above"><direction-type><words>Interstitial Pocket (interstitial, 4 bars)</words></direction-type></direction><note><pitch><step>D</step><octave>4</octave></pitch><duration>48</duration><voice>1</voice></note></measure><measure number="14"><note><pitch><step>C</step><octave>4</octave></pitch><duration>48</duration><voice>1</voice></note></measure><measure number="15"><note><pitch><step>A</step><octave>4</octave></pitch><duration>48</duration><voice>1</voice></note></measure><measure number="16"><note><pitch><step>C</step><octave>4</octave></pitch><duration>48</duration><voice>1</voice></note></measure><measure number="17"><direction placement="above"><direction-type><words>Break Pocket (break, 16 bars)</words></direction-type></direction><note><pitch><step>D</step><octave>4</octave></pitch><duration>48</duration><voice>1</voice></note></measure><measure number="18"><note><pitch><step>C</step><octave>4</octave></pitch><duration>48</duration><voice>1</voice></note></measure><measure number="19"><note><pitch><step>C</step><octave>4</octave></pitch><duration>48</duration><voice>1</voice></note></measure><measure number="20"><note><pitch><step>C</step><octave>4</octave></pitch><duration>48</duration><voice>1</voice></note></measure><measure number="21"><note><pitch><step>D</step><octave>4</octave></pitch><duration>48</duration><voice>1</voice></note></measure><measure number="22"><note><pitch><step>C</step><octave>4</octave></pitch><duration>48</duration><voice>1</voice></note></measure><measure number="23"><note><pitch><step>G</step><octave>4</octave></pitch><duration>48</duration><voice>1</voice></note></measure><measure number="24"><note><pitch><step>C</step><octave>4</octave></pitch><duration>48</duration><voice>1</voice></note></measure><measure number="25"><note><pitch><step>D</step><octave>4</octave></pitch><duration>48</duration><voice>1</voice></note></measure><measure number="26"><note><pitch><step>C</step><octave>4</octave></pitch><duration>48</duration><voice>1</voice></note></measure><measure number="27"><note><pitch><step>A</step><octave>4</octave></pitch><duration>48</duration><voice>1</voice></note></measure><measure number="28"><note><pitch><step>C</step><octave>4</octave></pitch><duration>48</duration><voice>1</voice></note></measure><measure number="29"><note><pitch><step>D</step><octave>4</octave></pitch><duration>48</duration><voice>1</voice></note></measure><measure number="30"><note><pitch><step>C</step><octave>4</octave></pitch><duration>48</duration><voice>1</voice></note></measure><measure number="31"><note><pitch><step>A</step><octave>4</octave></pitch><duration>48</duration><voice>1</voice></note></measure><measure number="32"><note><pitch><step>C</step><octave>4</octave></pitch><duration>48</duration><voice>1</voice></note></measure><measure number="33"><direction placement="above"><direction-type><words>Change Pocket (change, 2 bars)</words></direction-type></direction><note><pitch><step>D</step><octave>4</octave></pitch><duration>48</duration><voice>1</voice></note></measure><measure number="34"><note><pitch><step>C</step><octave>4</octave></pitch><duration>48</duration><voice>1</voice></note></measure><measure number="35"><direction placement="above"><direction-type><words>Outro Pocket (outro, 4 bars)</words></direction-type></direction><note><pitch><step>C</step><octave>4</octave></pitch><duration>48</duration><voice>1</voice></note></measure><measure number="36"><note><pitch><step>C</step><octave>4</octave></pitch><duration>48</duration><voice>1</voice></note></measure><measure number="37"><note><pitch><step>D</step><octave>4</octave></pitch><duration>48</duration><voice>1</voice></note></measure><measure number="38"><note><pitch><step>C</step><octave>4</octave></pitch><duration>48</duration><voice>1</voice></note></measure></part><part id="P3"><measure number="1"><attributes><divisions>12</divisions><key><fifths>2</fifths></key><time><beats>4</beats><beat-type>4</beat-type></time><clef><sign>G</sign><line>2</line></clef></attributes><direction placement="above"><direction-type><words>Intro Pocket (intro, 8 bars)</words></direction-type></direction><note><pitch><step>D</step><octave>5</octave></pitch><duration>48</duration><voice>1</voice></note></measure><measure number="2"><note><pitch><step>C</step><octave>5</octave></pitch><duration>48</duration><voice>1</voice></note></measure><measure number="3"><note><pitch><step>C</step><octave>5</octave></pitch><duration>48</duration><voice>1</voice></note></measure><measure number="4"><note><pitch><step>C</step><octave>5</octave></pitch><duration>48</duration><voice>1</voice></note></measure><measure number="5"><note><pitch><step>D</step><octave>5</octave></pitch><duration>48</duration><voice>1</voice></note></measure><measure number="6"><note><pitch><step>C</step><octave>5</octave></pitch><duration>48</duration><voice>1</voice></note></measure><measure number="7"><note><pitch><step>G</step><octave>5</octave></pitch><duration>48</duration><voice>1</voice></note></measure><measure number="8"><note><pitch><step>C</step><octave>5</octave></pitch><duration>48</duration><voice>1</voice></note></measure><measure number="9"><direction placement="above"><direction-type><words>Interstitial Pocket (interstitial, 4 bars)</words></direction-type></direction><note><pitch><step>D</step><octave>5</octave></pitch><duration>48</duration><voice>1</voice></note></measure><measure number="10"><note><pitch><step>C</step><octave>5</octave></pitch><duration>48</duration><voice>1</voice></note></measure><measure number="11"><note><pitch><step>A</step><octave>5</octave></pitch><duration>48</duration><voice>1</voice></note></measure><measure number="12"><note><pitch><step>C</step><octave>5</octave></pitch><duration>48</duration><voice>1</voice></note></measure><measure number="13"><direction placement="above"><direction-type><words>Interstitial Pocket (interstitial, 4 bars)</words></direction-type></direction><note><pitch><step>D</step><octave>5</octave></pitch><duration>48</duration><voice>1</voice></note></measure><measure number="14"><note><pitch><step>C</step><octave>5</octave></pitch><duration>48</duration><voice>1</voice></note></measure><measure number="15"><note><pitch><step>A</step><octave>5</octave></pitch><duration>48</duration><voice>1</voice></note></measure><measure number="16"><note><pitch><step>C</step><octave>5</octave></pitch><duration>48</duration><voice>1</voice></note></measure><measure number="17"><direction placement="above"><direction-type><words>Break Pocket (break, 16 bars)</words></direction-type></direction><note><pitch><step>D</step><octave>5</octave></pitch><duration>48</duration><voice>1</voice></note></measure><measure number="18"><note><pitch><step>C</step><octave>5</octave></pitch><duration>48</duration><voice>1</voice></note></measure><measure number="19"><note><pitch><step>C</step><octave>5</octave></pitch><duration>48</duration><voice>1</voice></note></measure><measure number="20"><note><pitch><step>C</step><octave>5</octave></pitch><duration>48</duration><voice>1</voice></note></measure><measure number="21"><note><pitch><step>D</step><octave>5</octave></pitch><duration>48</duration><voice>1</voice></note></measure><measure number="22"><note><pitch><step>C</step><octave>5</octave></pitch><duration>48</duration><voice>1</voice></note></measure><measure number="23"><note><pitch><step>G</step><octave>5</octave></pitch><duration>48</duration><voice>1</voice></note></measure><measure number="24"><note><pitch><step>C</step><octave>5</octave></pitch><duration>48</duration><voice>1</voice></note></measure><measure number="25"><note><pitch><step>D</step><octave>5</octave></pitch><duration>48</duration><voice>1</voice></note></measure><measure number="26"><note><pitch><step>C</step><octave>5</octave></pitch><duration>48</duration><voice>1</voice></note></measure><measure number="27"><note><pitch><step>A</step><octave>5</octave></pitch><duration>48</duration><voice>1</voice></note></measure><measure number="28"><note><pitch><step>C</step><octave>5</octave></pitch><duration>48</duration><voice>1</voice></note></measure><measure number="29"><note><pitch><step>D</step><octave>5</octave></pitch><duration>48</duration><voice>1</voice></note></measure><measure number="30"><note><pitch><step>C</step><octave>5</octave></pitch><duration>48</duration><voice>1</voice></note></measure><measure number="31"><note><pitch><step>A</step><octave>5</octave></pitch><duration>48</duration><voice>1</voice></note></measure><measure number="32"><note><pitch><step>C</step><octave>5</octave></pitch><duration>48</duration><voice>1</voice></note></measure><measure number="33"><direction placement="above"><direction-type><words>Change Pocket (change, 2 bars)</words></direction-type></direction><note><pitch><step>D</step><octave>5</octave></pitch><duration>48</duration><voice>1</voice></note></measure><measure number="34"><note><pitch><step>C</step><octave>5</octave></pitch><duration>48</duration><voice>1</voice></note></measure><measure number="35"><direction placement="above"><direction-type><words>Outro Pocket (outro, 4 bars)</words></direction-type></direction><note><pitch><step>C</step><octave>5</octave></pitch><duration>48</duration><voice>1</voice></note></measure><measure number="36"><note><pitch><step>C</step><octave>5</octave></pitch><duration>48</duration><voice>1</voice></note></measure><measure number="37"><note><pitch><step>D</step><octave>5</octave></pitch><duration>48</duration><voice>1</voice></note></measure><measure number="38"><note><pitch><step>C</step><octave>5</octave></pitch><duration>48</duration><voice>1</voice></note></measure></part><part id="P4"><measure number="1"><attributes><divisions>12</divisions><key><fifths>2</fifths></key><time><beats>4</beats><beat-type>4</beat-type></time><clef><sign>G</sign><line>2</line></clef></attributes><direction placement="above"><direction-type><words>Intro Pocket (intro, 8 bars)</words></direction-type></direction><note><pitch><step>D</step><octave>5</octave></pitch><duration>48</duration><voice>1</voice></note></measure><measure number="2"><note><pitch><step>C</step><octave>5</octave></pitch><duration>48</duration><voice>1</voice></note></measure><measure number="3"><note><pitch><step>C</step><octave>5</octave></pitch><duration>48</duration><voice>1</voice></note></measure><measure number="4"><note><pitch><step>C</step><octave>5</octave></pitch><duration>48</duration><voice>1</voice></note></measure><measure number="5"><note><pitch><step>D</step><octave>5</octave></pitch><duration>48</duration><voice>1</voice></note></measure><measure number="6"><note><pitch><step>C</step><octave>5</octave></pitch><duration>48</duration><voice>1</voice></note></measure><measure number="7"><note><pitch><step>G</step><octave>5</octave></pitch><duration>48</duration><voice>1</voice></note></measure><measure number="8"><note><pitch><step>C</step><octave>5</octave></pitch><duration>48</duration><voice>1</voice></note></measure><measure number="9"><direction placement="above"><direction-type><words>Interstitial Pocket (interstitial, 4 bars)</words></direction-type></direction><note><pitch><step>D</step><octave>5</octave></pitch><duration>48</duration><voice>1</voice></note></measure><measure number="10"><note><pitch><step>C</step><octave>5</octave></pitch><duration>48</duration><voice>1</voice></note></measure><measure number="11"><note><pitch><step>A</step><octave>5</octave></pitch><duration>48</duration><voice>1</voice></note></measure><measure number="12"><note><pitch><step>C</step><octave>5</octave></pitch><duration>48</duration><voice>1</voice></note></measure><measure number="13"><direction placement="above"><direction-type><words>Interstitial Pocket (interstitial, 4 bars)</words></direction-type></direction><note><pitch><step>D</step><octave>5</octave></pitch><duration>48</duration><voice>1</voice></note></measure><measure number="14"><note><pitch><step>C</step><octave>5</octave></pitch><duration>48</duration><voice>1</voice></note></measure><measure number="15"><note><pitch><step>A</step><octave>5</octave></pitch><duration>48</duration><voice>1</voice></note></measure><measure number="16"><note><pitch><step>C</step><octave>5</octave></pitch><duration>48</duration><voice>1</voice></note></measure><measure number="17"><direction placement="above"><direction-type><words>Break Pocket (break, 16 bars)</words></direction-type></direction><note><pitch><step>D</step><octave>5</octave></pitch><duration>48</duration><voice>1</voice></note></measure><measure number="18"><note><pitch><step>C</step><octave>5</octave></pitch><duration>48</duration><voice>1</voice></note></measure><measure number="19"><note><pitch><step>C</step><octave>5</octave></pitch><duration>48</duration><voice>1</voice></note></measure><measure number="20"><note><pitch><step>C</step><octave>5</octave></pitch><duration>48</duration><voice>1</voice></note></measure><measure number="21"><note><pitch><step>D</step><octave>5</octave></pitch><duration>48</duration><voice>1</voice></note></measure><measure number="22"><note><pitch><step>C</step><octave>5</octave></pitch><duration>48</duration><voice>1</voice></note></measure><measure number="23"><note><pitch><step>G</step><octave>5</octave></pitch><duration>48</duration><voice>1</voice></note></measure><measure number="24"><note><pitch><step>C</step><octave>5</octave></pitch><duration>48</duration><voice>1</voice></note></measure><measure number="25"><note><pitch><step>D</step><octave>5</octave></pitch><duration>48</duration><voice>1</voice></note></measure><measure number="26"><note><pitch><step>C</step><octave>5</octave></pitch><duration>48</duration><voice>1</voice></note></measure><measure number="27"><note><pitch><step>A</step><octave>5</octave></pitch><duration>48</duration><voice>1</voice></note></measure><measure number="28"><note><pitch><step>C</step><octave>5</octave></pitch><duration>48</duration><voice>1</voice></note></measure><measure number="29"><note><pitch><step>D</step><octave>5</octave></pitch><duration>48</duration><voice>1</voice></note></measure><measure number="30"><note><pitch><step>C</step><octave>5</octave></pitch><duration>48</duration><voice>1</voice></note></measure><measure number="31"><note><pitch><step>A</step><octave>5</octave></pitch><duration>48</duration><voice>1</voice></note></measure><measure number="32"><note><pitch><step>C</step><octave>5</octave></pitch><duration>48</duration><voice>1</voice></note></measure><measure number="33"><direction placement="above"><direction-type><words>Change Pocket (change, 2 bars)</words></direction-type></direction><note><pitch><step>D</step><octave>5</octave></pitch><duration>48</duration><voice>1</voice></note></measure><measure number="34"><note><pitch><step>C</step><octave>5</octave></pitch><duration>48</duration><voice>1</voice></note></measure><measure number="35"><direction placement="above"><direction-type><words>Outro Pocket (outro, 4 bars)</words></direction-type></direction><note><pitch><step>C</step><octave>5</octave></pitch><duration>48</duration><voice>1</voice></note></measure><measure number="36"><note><pitch><step>C</step><octave>5</octave></pitch><duration>48</duration><voice>1</voice></note></measure><measure number="37"><note><pitch><step>D</step><octave>5</octave></pitch><duration>48</duration><voice>1</voice></note></measure><measure number="38"><note><pitch><step>C</step><octave>5</octave></pitch><duration>48</duration><voice>1</voice></note></measure></part><part id="P5"><measure number="1"><attributes><divisions>12</divisions><key><fifths>2</fifths></key><time><beats>4</beats><beat-type>4</beat-type></time><clef><sign>G</sign><line>2</line></clef></attributes><direction placement="above"><direction-type><words>Intro Pocket (intro, 8 bars)</words></direction-type></direction><note><pitch><step>D</step><octave>4</octave></pitch><duration>48</duration><voice>1</voice></note></measure><measure number="2"><note><pitch><step>C</step><octave>4</octave></pitch><duration>48</duration><voice>1</voice></note></measure><measure number="3"><note><pitch><step>C</step><octave>4</octave></pitch><duration>48</duration><voice>1</voice></note></measure><measure number="4"><note><pitch><step>C</step><octave>4</octave></pitch><duration>48</duration><voice>1</voice></note></measure><measure number="5"><note><pitch><step>D</step><octave>4</octave></pitch><duration>48</duration><voice>1</voice></note></measure><measure number="6"><note><pitch><step>C</step><octave>4</octave></pitch><duration>48</duration><voice>1</voice></note></measure><measure number="7"><note><pitch><step>G</step><octave>4</octave></pitch><duration>48</duration><voice>1</voice></note></measure><measure number="8"><note><pitch><step>C</step><octave>4</octave></pitch><duration>48</duration><voice>1</voice></note></measure><measure number="9"><direction placement="above"><direction-type><words>Interstitial Pocket (interstitial, 4 bars)</words></direction-type></direction><note><pitch><step>D</step><octave>4</octave></pitch><duration>48</duration><voice>1</voice></note></measure><measure number="10"><note><pitch><step>C</step><octave>4</octave></pitch><duration>48</duration><voice>1</voice></note></measure><measure number="11"><note><pitch><step>A</step><octave>4</octave></pitch><duration>48</duration><voice>1</voice></note></measure><measure number="12"><note><pitch><step>C</step><octave>4</octave></pitch><duration>48</duration><voice>1</voice></note></measure><measure number="13"><direction placement="above"><direction-type><words>Interstitial Pocket (interstitial, 4 bars)</words></direction-type></direction><note><pitch><step>D</step><octave>4</octave></pitch><duration>48</duration><voice>1</voice></note></measure><measure number="14"><note><pitch><step>C</step><octave>4</octave></pitch><duration>48</duration><voice>1</voice></note></measure><measure number="15"><note><pitch><step>A</step><octave>4</octave></pitch><duration>48</duration><voice>1</voice></note></measure><measure number="16"><note><pitch><step>C</step><octave>4</octave></pitch><duration>48</duration><voice>1</voice></note></measure><measure number="17"><direction placement="above"><direction-type><words>Break Pocket (break, 16 bars)</words></direction-type></direction><note><pitch><step>D</step><octave>4</octave></pitch><duration>48</duration><voice>1</voice></note></measure><measure number="18"><note><pitch><step>C</step><octave>4</octave></pitch><duration>48</duration><voice>1</voice></note></measure><measure number="19"><note><pitch><step>C</step><octave>4</octave></pitch><duration>48</duration><voice>1</voice></note></measure><measure number="20"><note><pitch><step>C</step><octave>4</octave></pitch><duration>48</duration><voice>1</voice></note></measure><measure number="21"><note><pitch><step>D</step><octave>4</octave></pitch><duration>48</duration><voice>1</voice></note></measure><measure number="22"><note><pitch><step>C</step><octave>4</octave></pitch><duration>48</duration><voice>1</voice></note></measure><measure number="23"><note><pitch><step>G</step><octave>4</octave></pitch><duration>48</duration><voice>1</voice></note></measure><measure number="24"><note><pitch><step>C</step><octave>4</octave></pitch><duration>48</duration><voice>1</voice></note></measure><measure number="25"><note><pitch><step>D</step><octave>4</octave></pitch><duration>48</duration><voice>1</voice></note></measure><measure number="26"><note><pitch><step>C</step><octave>4</octave></pitch><duration>48</duration><voice>1</voice></note></measure><measure number="27"><note><pitch><step>A</step><octave>4</octave></pitch><duration>48</duration><voice>1</voice></note></measure><measure number="28"><note><pitch><step>C</step><octave>4</octave></pitch><duration>48</duration><voice>1</voice></note></measure><measure number="29"><note><pitch><step>D</step><octave>4</octave></pitch><duration>48</duration><voice>1</voice></note></measure><measure number="30"><note><pitch><step>C</step><octave>4</octave></pitch><duration>48</duration><voice>1</voice></note></measure><measure number="31"><note><pitch><step>A</step><octave>4</octave></pitch><duration>48</duration><voice>1</voice></note></measure><measure number="32"><note><pitch><step>C</step><octave>4</octave></pitch><duration>48</duration><voice>1</voice></note></measure><measure number="33"><direction placement="above"><direction-type><words>Change Pocket (change, 2 bars)</words></direction-type></direction><note><pitch><step>D</step><octave>4</octave></pitch><duration>48</duration><voice>1</voice></note></measure><measure number="34"><note><pitch><step>C</step><octave>4</octave></pitch><duration>48</duration><voice>1</voice></note></measure><measure number="35"><direction placement="above"><direction-type><words>Outro Pocket (outro, 4 bars)</words></direction-type></direction><note><pitch><step>C</step><octave>4</octave></pitch><duration>48</duration><voice>1</voice></note></measure><measure number="36"><note><pitch><step>C</step><octave>4</octave></pitch><duration>48</duration><voice>1</voice></note></measure><measure number="37"><note><pitch><step>D</step><octave>4</octave></pitch><duration>48</duration><voice>1</voice></note></measure><measure number="38"><note><pitch><step>C</step><octave>4</octave></pitch><duration>48</duration><voice>1</voice></note></measure></part><part id="P6"><measure number="1"><attributes><divisions>12</divisions><key><fifths>2</fifths></key><time><beats>4</beats><beat-type>4</beat-type></time><clef><sign>F</sign><line>4</line></clef></attributes><direction placement="above"><direction-type><words>Intro Pocket (intro, 8 bars)</words></direction-type></direction><note><pitch><step>D</step><octave>3</octave></pitch><duration>48</duration><voice>1</voice></note></measure><measure number="2"><note><pitch><step>C</step><octave>3</octave></pitch><duration>48</duration><voice>1</voice></note></measure><measure number="3"><note><pitch><step>C</step><octave>3</octave></pitch><duration>48</duration><voice>1</voice></note></measure><measure number="4"><note><pitch><step>C</step><octave>3</octave></pitch><duration>48</duration><voice>1</voice></note></measure><measure number="5"><note><pitch><step>D</step><octave>3</octave></pitch><duration>48</duration><voice>1</voice></note></measure><measure number="6"><note><pitch><step>C</step><octave>3</octave></pitch><duration>48</duration><voice>1</voice></note></measure><measure number="7"><note><pitch><step>G</step><octave>3</octave></pitch><duration>48</duration><voice>1</voice></note></measure><measure number="8"><note><pitch><step>C</step><octave>3</octave></pitch><duration>48</duration><voice>1</voice></note></measure><measure number="9"><direction placement="above"><direction-type><words>Interstitial Pocket (interstitial, 4 bars)</words></direction-type></direction><note><pitch><step>D</step><octave>3</octave></pitch><duration>48</duration><voice>1</voice></note></measure><measure number="10"><note><pitch><step>C</step><octave>3</octave></pitch><duration>48</duration><voice>1</voice></note></measure><measure number="11"><note><pitch><step>A</step><octave>3</octave></pitch><duration>48</duration><voice>1</voice></note></measure><measure number="12"><note><pitch><step>C</step><octave>3</octave></pitch><duration>48</duration><voice>1</voice></note></measure><measure number="13"><direction placement="above"><direction-type><words>Interstitial Pocket (interstitial, 4 bars)</words></direction-type></direction><note><pitch><step>D</step><octave>3</octave></pitch><duration>48</duration><voice>1</voice></note></measure><measure number="14"><note><pitch><step>C</step><octave>3</octave></pitch><duration>48</duration><voice>1</voice></note></measure><measure number="15"><note><pitch><step>A</step><octave>3</octave></pitch><duration>48</duration><voice>1</voice></note></measure><measure number="16"><note><pitch><step>C</step><octave>3</octave></pitch><duration>48</duration><voice>1</voice></note></measure><measure number="17"><direction placement="above"><direction-type><words>Break Pocket (break, 16 bars)</words></direction-type></direction><note><pitch><step>D</step><octave>3</octave></pitch><duration>48</duration><voice>1</voice></note></measure><measure number="18"><note><pitch><step>C</step><octave>3</octave></pitch><duration>48</duration><voice>1</voice></note></measure><measure number="19"><note><pitch><step>C</step><octave>3</octave></pitch><duration>48</duration><voice>1</voice></note></measure><measure number="20"><note><pitch><step>C</step><octave>3</octave></pitch><duration>48</duration><voice>1</voice></note></measure><measure number="21"><note><pitch><step>D</step><octave>3</octave></pitch><duration>48</duration><voice>1</voice></note></measure><measure number="22"><note><pitch><step>C</step><octave>3</octave></pitch><duration>48</duration><voice>1</voice></note></measure><measure number="23"><note><pitch><step>G</step><octave>3</octave></pitch><duration>48</duration><voice>1</voice></note></measure><measure number="24"><note><pitch><step>C</step><octave>3</octave></pitch><duration>48</duration><voice>1</voice></note></measure><measure number="25"><note><pitch><step>D</step><octave>3</octave></pitch><duration>48</duration><voice>1</voice></note></measure><measure number="26"><note><pitch><step>C</step><octave>3</octave></pitch><duration>48</duration><voice>1</voice></note></measure><measure number="27"><note><pitch><step>A</step><octave>3</octave></pitch><duration>48</duration><voice>1</voice></note></measure><measure number="28"><note><pitch><step>C</step><octave>3</octave></pitch><duration>48</duration><voice>1</voice></note></measure><measure number="29"><note><pitch><step>D</step><octave>3</octave></pitch><duration>48</duration><voice>1</voice></note></measure><measure number="30"><note><pitch><step>C</step><octave>3</octave></pitch><duration>48</duration><voice>1</voice></note></measure><measure number="31"><note><pitch><step>A</step><octave>3</octave></pitch><duration>48</duration><voice>1</voice></note></measure><measure number="32"><note><pitch><step>C</step><octave>3</octave></pitch><duration>48</duration><voice>1</voice></note></measure><measure number="33"><direction placement="above"><direction-type><words>Change Pocket (change, 2 bars)</words></direction-type></direction><note><pitch><step>D</step><octave>3</octave></pitch><duration>48</duration><voice>1</voice></note></measure><measure number="34"><note><pitch><step>C</step><octave>3</octave></pitch><duration>48</duration><voice>1</voice></note></measure><measure number="35"><direction placement="above"><direction-type><words>Outro Pocket (outro, 4 bars)</words></direction-type></direction><note><pitch><step>C</step><octave>3</octave></pitch><duration>48</duration><voice>1</voice></note></measure><measure number="36"><note><pitch><step>C</step><octave>3</octave></pitch><duration>48</duration><voice>1</voice></note></measure><measure number="37"><note><pitch><step>D</step><octave>3</octave></pitch><duration>48</duration><voice>1</voice></note></measure><measure number="38"><note><pitch><step>C</step><octave>3</octave></pitch><duration>48</duration><voice>1</voice></note></measure></part><part id="P7"><measure number="1"><attributes><divisions>12</divisions><key><fifths>2</fifths></key><time><beats>4</beats><beat-type>4</beat-type></time><clef><sign>G</sign><line>2</line></clef></attributes><direction placement="above"><direction-type><words>Intro Pocket (intro, 8 bars)</words></direction-type></direction><note><pitch><step>D</step><octave>4</octave></pitch><duration>48</duration><voice>1</voice></note></measure><measure number="2"><note><pitch><step>C</step><octave>4</octave></pitch><duration>48</duration><voice>1</voice></note></measure><measure number="3"><note><pitch><step>C</step><octave>4</octave></pitch><duration>48</duration><voice>1</voice></note></measure><measure number="4"><note><pitch><step>C</step><octave>4</octave></pitch><duration>48</duration><voice>1</voice></note></measure><measure number="5"><note><pitch><step>D</step><octave>4</octave></pitch><duration>48</duration><voice>1</voice></note></measure><measure number="6"><note><pitch><step>C</step><octave>4</octave></pitch><duration>48</duration><voice>1</voice></note></measure><measure number="7"><note><pitch><step>G</step><octave>4</octave></pitch><duration>48</duration><voice>1</voice></note></measure><measure number="8"><note><pitch><step>C</step><octave>4</octave></pitch><duration>48</duration><voice>1</voice></note></measure><measure number="9"><direction placement="above"><direction-type><words>Interstitial Pocket (interstitial, 4 bars)</words></direction-type></direction><note><pitch><step>D</step><octave>4</octave></pitch><duration>48</duration><voice>1</voice></note></measure><measure number="10"><note><pitch><step>C</step><octave>4</octave></pitch><duration>48</duration><voice>1</voice></note></measure><measure number="11"><note><pitch><step>A</step><octave>4</octave></pitch><duration>48</duration><voice>1</voice></note></measure><measure number="12"><note><pitch><step>C</step><octave>4</octave></pitch><duration>48</duration><voice>1</voice></note></measure><measure number="13"><direction placement="above"><direction-type><words>Interstitial Pocket (interstitial, 4 bars)</words></direction-type></direction><note><pitch><step>D</step><octave>4</octave></pitch><duration>48</duration><voice>1</voice></note></measure><measure number="14"><note><pitch><step>C</step><octave>4</octave></pitch><duration>48</duration><voice>1</voice></note></measure><measure number="15"><note><pitch><step>A</step><octave>4</octave></pitch><duration>48</duration><voice>1</voice></note></measure><measure number="16"><note><pitch><step>C</step><octave>4</octave></pitch><duration>48</duration><voice>1</voice></note></measure><measure number="17"><direction placement="above"><direction-type><words>Break Pocket (break, 16 bars)</words></direction-type></direction><note><pitch><step>D</step><octave>4</octave></pitch><duration>48</duration><voice>1</voice></note></measure><measure number="18"><note><pitch><step>C</step><octave>4</octave></pitch><duration>48</duration><voice>1</voice></note></measure><measure number="19"><note><pitch><step>C</step><octave>4</octave></pitch><duration>48</duration><voice>1</voice></note></measure><measure number="20"><note><pitch><step>C</step><octave>4</octave></pitch><duration>48</duration><voice>1</voice></note></measure><measure number="21"><note><pitch><step>D</step><octave>4</octave></pitch><duration>48</duration><voice>1</voice></note></measure><measure number="22"><note><pitch><step>C</step><octave>4</octave></pitch><duration>48</duration><voice>1</voice></note></measure><measure number="23"><note><pitch><step>G</step><octave>4</octave></pitch><duration>48</duration><voice>1</voice></note></measure><measure number="24"><note><pitch><step>C</step><octave>4</octave></pitch><duration>48</duration><voice>1</voice></note></measure><measure number="25"><note><pitch><step>D</step><octave>4</octave></pitch><duration>48</duration><voice>1</voice></note></measure><measure number="26"><note><pitch><step>C</step><octave>4</octave></pitch><duration>48</duration><voice>1</voice></note></measure><measure number="27"><note><pitch><step>A</step><octave>4</octave></pitch><duration>48</duration><voice>1</voice></note></measure><measure number="28"><note><pitch><step>C</step><octave>4</octave></pitch><duration>48</duration><voice>1</voice></note></measure><measure number="29"><note><pitch><step>D</step><octave>4</octave></pitch><duration>48</duration><voice>1</voice></note></measure><measure number="30"><note><pitch><step>C</step><octave>4</octave></pitch><duration>48</duration><voice>1</voice></note></measure><measure number="31"><note><pitch><step>A</step><octave>4</octave></pitch><duration>48</duration><voice>1</voice></note></measure><measure number="32"><note><pitch><step>C</step><octave>4</octave></pitch><duration>48</duration><voice>1</voice></note></measure><measure number="33"><direction placement="above"><direction-type><words>Change Pocket (change, 2 bars)</words></direction-type></direction><note><pitch><step>D</step><octave>4</octave></pitch><duration>48</duration><voice>1</voice></note></measure><measure number="34"><note><pitch><step>C</step><octave>4</octave></pitch><duration>48</duration><voice>1</voice></note></measure><measure number="35"><direction placement="above"><direction-type><words>Outro Pocket (outro, 4 bars)</words></direction-type></direction><note><pitch><step>C</step><octave>4</octave></pitch><duration>48</duration><voice>1</voice></note></measure><measure number="36"><note><pitch><step>C</step><octave>4</octave></pitch><duration>48</duration><voice>1</voice></note></measure><measure number="37"><note><pitch><step>D</step><octave>4</octave></pitch><duration>48</duration><voice>1</voice></note></measure><measure number="38"><note><pitch><step>C</step><octave>4</octave></pitch><duration>48</duration><voice>1</voice></note></measure></part><part id="P8"><measure number="1"><attributes><divisions>12</divisions><key><fifths>2</fifths></key><time><beats>4</beats><beat-type>4</beat-type></time><clef><sign>G</sign><line>2</line></clef></attributes><direction placement="above"><direction-type><words>Intro Pocket (intro, 8 bars)</words></direction-type></direction><note><pitch><step>D</step><octave>4</octave></pitch><duration>48</duration><voice>1</voice></note></measure><measure number="2"><note><pitch><step>C</step><octave>4</octave></pitch><duration>48</duration><voice>1</voice></note></measure><measure number="3"><note><pitch><step>C</step><octave>4</octave></pitch><duration>48</duration><voice>1</voice></note></measure><measure number="4"><note><pitch><step>C</step><octave>4</octave></pitch><duration>48</duration><voice>1</voice></note></measure><measure number="5"><note><pitch><step>D</step><octave>4</octave></pitch><duration>48</duration><voice>1</voice></note></measure><measure number="6"><note><pitch><step>C</step><octave>4</octave></pitch><duration>48</duration><voice>1</voice></note></measure><measure number="7"><note><pitch><step>G</step><octave>4</octave></pitch><duration>48</duration><voice>1</voice></note></measure><measure number="8"><note><pitch><step>C</step><octave>4</octave></pitch><duration>48</duration><voice>1</voice></note></measure><measure number="9"><direction placement="above"><direction-type><words>Interstitial Pocket (interstitial, 4 bars)</words></direction-type></direction><note><pitch><step>D</step><octave>4</octave></pitch><duration>48</duration><voice>1</voice></note></measure><measure number="10"><note><pitch><step>C</step><octave>4</octave></pitch><duration>48</duration><voice>1</voice></note></measure><measure number="11"><note><pitch><step>A</step><octave>4</octave></pitch><duration>48</duration><voice>1</voice></note></measure><measure number="12"><note><pitch><step>C</step><octave>4</octave></pitch><duration>48</duration><voice>1</voice></note></measure><measure number="13"><direction placement="above"><direction-type><words>Interstitial Pocket (interstitial, 4 bars)</words></direction-type></direction><note><pitch><step>D</step><octave>4</octave></pitch><duration>48</duration><voice>1</voice></note></measure><measure number="14"><note><pitch><step>C</step><octave>4</octave></pitch><duration>48</duration><voice>1</voice></note></measure><measure number="15"><note><pitch><step>A</step><octave>4</octave></pitch><duration>48</duration><voice>1</voice></note></measure><measure number="16"><note><pitch><step>C</step><octave>4</octave></pitch><duration>48</duration><voice>1</voice></note></measure><measure number="17"><direction placement="above"><direction-type><words>Break Pocket (break, 16 bars)</words></direction-type></direction><note><pitch><step>D</step><octave>4</octave></pitch><duration>48</duration><voice>1</voice></note></measure><measure number="18"><note><pitch><step>C</step><octave>4</octave></pitch><duration>48</duration><voice>1</voice></note></measure><measure number="19"><note><pitch><step>C</step><octave>4</octave></pitch><duration>48</duration><voice>1</voice></note></measure><measure number="20"><note><pitch><step>C</step><octave>4</octave></pitch><duration>48</duration><voice>1</voice></note></measure><measure number="21"><note><pitch><step>D</step><octave>4</octave></pitch><duration>48</duration><voice>1</voice></note></measure><measure number="22"><note><pitch><step>C</step><octave>4</octave></pitch><duration>48</duration><voice>1</voice></note></measure><measure number="23"><note><pitch><step>G</step><octave>4</octave></pitch><duration>48</duration><voice>1</voice></note></measure><measure number="24"><note><pitch><step>C</step><octave>4</octave></pitch><duration>48</duration><voice>1</voice></note></measure><measure number="25"><note><pitch><step>D</step><octave>4</octave></pitch><duration>48</duration><voice>1</voice></note></measure><measure number="26"><note><pitch><step>C</step><octave>4</octave></pitch><duration>48</duration><voice>1</voice></note></measure><measure number="27"><note><pitch><step>A</step><octave>4</octave></pitch><duration>48</duration><voice>1</voice></note></measure><measure number="28"><note><pitch><step>C</step><octave>4</octave></pitch><duration>48</duration><voice>1</voice></note></measure><measure number="29"><note><pitch><step>D</step><octave>4</octave></pitch><duration>48</duration><voice>1</voice></note></measure><measure number="30"><note><pitch><step>C</step><octave>4</octave></pitch><duration>48</duration><voice>1</voice></note></measure><measure number="31"><note><pitch><step>A</step><octave>4</octave></pitch><duration>48</duration><voice>1</voice></note></measure><measure number="32"><note><pitch><step>C</step><octave>4</octave></pitch><duration>48</duration><voice>1</voice></note></measure><measure number="33"><direction placement="above"><direction-type><words>Change Pocket (change, 2 bars)</words></direction-type></direction><note><pitch><step>D</step><octave>4</octave></pitch><duration>48</duration><voice>1</voice></note></measure><measure number="34"><note><pitch><step>C</step><octave>4</octave></pitch><duration>48</duration><voice>1</voice></note></measure><measure number="35"><direction placement="above"><direction-type><words>Outro Pocket (outro, 4 bars)</words></direction-type></direction><note><pitch><step>C</step><octave>4</octave></pitch><duration>48</duration><voice>1</voice></note></measure><measure number="36"><note><pitch><step>C</step><octave>4</octave></pitch><duration>48</duration><voice>1</voice></note></measure><measure number="37"><note><pitch><step>D</step><octave>4</octave></pitch><duration>48</duration><voice>1</voice></note></measure><measure number="38"><note><pitch><step>C</step><octave>4</octave></pitch><duration>48</duration><voice>1</voice></note></measure></part><part id="P9"><measure number="1"><attributes><divisions>12</divisions><key><fifths>2</fifths></key><time><beats>4</beats><beat-type>4</beat-type></time><clef><sign>F</sign><line>4</line></clef></attributes><direction placement="above"><direction-type><words>Intro Pocket (intro, 8 bars)</words></direction-type></direction><note><pitch><step>D</step><octave>2</octave></pitch><duration>48</duration><voice>1</voice></note></measure><measure number="2"><note><pitch><step>C</step><octave>2</octave></pitch><duration>48</duration><voice>1</voice></note></measure><measure number="3"><note><pitch><step>C</step><octave>2</octave></pitch><duration>48</duration><voice>1</voice></note></measure><measure number="4"><note><pitch><step>C</step><octave>2</octave></pitch><duration>48</duration><voice>1</voice></note></measure><measure number="5"><note><pitch><step>D</step><octave>2</octave></pitch><duration>48</duration><voice>1</voice></note></measure><measure number="6"><note><pitch><step>C</step><octave>2</octave></pitch><duration>48</duration><voice>1</voice></note></measure><measure number="7"><note><pitch><step>G</step><octave>2</octave></pitch><duration>48</duration><voice>1</voice></note></measure><measure number="8"><note><pitch><step>C</step><octave>2</octave></pitch><duration>48</duration><voice>1</voice></note></measure><measure number="9"><direction placement="above"><direction-type><words>Interstitial Pocket (interstitial, 4 bars)</words></direction-type></direction><note><pitch><step>D</step><octave>2</octave></pitch><duration>48</duration><voice>1</voice></note></measure><measure number="10"><note><pitch><step>C</step><octave>2</octave></pitch><duration>48</duration><voice>1</voice></note></measure><measure number="11"><note><pitch><step>A</step><octave>2</octave></pitch><duration>48</duration><voice>1</voice></note></measure><measure number="12"><note><pitch><step>C</step><octave>2</octave></pitch><duration>48</duration><voice>1</voice></note></measure><measure number="13"><direction placement="above"><direction-type><words>Interstitial Pocket (interstitial, 4 bars)</words></direction-type></direction><note><pitch><step>D</step><octave>2</octave></pitch><duration>48</duration><voice>1</voice></note></measure><measure number="14"><note><pitch><step>C</step><octave>2</octave></pitch><duration>48</duration><voice>1</voice></note></measure><measure number="15"><note><pitch><step>A</step><octave>2</octave></pitch><duration>48</duration><voice>1</voice></note></measure><measure number="16"><note><pitch><step>C</step><octave>2</octave></pitch><duration>48</duration><voice>1</voice></note></measure><measure number="17"><direction placement="above"><direction-type><words>Break Pocket (break, 16 bars)</words></direction-type></direction><note><pitch><step>D</step><octave>2</octave></pitch><duration>48</duration><voice>1</voice></note></measure><measure number="18"><note><pitch><step>C</step><octave>2</octave></pitch><duration>48</duration><voice>1</voice></note></measure><measure number="19"><note><pitch><step>C</step><octave>2</octave></pitch><duration>48</duration><voice>1</voice></note></measure><measure number="20"><note><pitch><step>C</step><octave>2</octave></pitch><duration>48</duration><voice>1</voice></note></measure><measure number="21"><note><pitch><step>D</step><octave>2</octave></pitch><duration>48</duration><voice>1</voice></note></measure><measure number="22"><note><pitch><step>C</step><octave>2</octave></pitch><duration>48</duration><voice>1</voice></note></measure><measure number="23"><note><pitch><step>G</step><octave>2</octave></pitch><duration>48</duration><voice>1</voice></note></measure><measure number="24"><note><pitch><step>C</step><octave>2</octave></pitch><duration>48</duration><voice>1</voice></note></measure><measure number="25"><note><pitch><step>D</step><octave>2</octave></pitch><duration>48</duration><voice>1</voice></note></measure><measure number="26"><note><pitch><step>C</step><octave>2</octave></pitch><duration>48</duration><voice>1</voice></note></measure><measure number="27"><note><pitch><step>A</step><octave>2</octave></pitch><duration>48</duration><voice>1</voice></note></measure><measure number="28"><note><pitch><step>C</step><octave>2</octave></pitch><duration>48</duration><voice>1</voice></note></measure><measure number="29"><note><pitch><step>D</step><octave>2</octave></pitch><duration>48</duration><voice>1</voice></note></measure><measure number="30"><note><pitch><step>C</step><octave>2</octave></pitch><duration>48</duration><voice>1</voice></note></measure><measure number="31"><note><pitch><step>A</step><octave>2</octave></pitch><duration>48</duration><voice>1</voice></note></measure><measure number="32"><note><pitch><step>C</step><octave>2</octave></pitch><duration>48</duration><voice>1</voice></note></measure><measure number="33"><direction placement="above"><direction-type><words>Change Pocket (change, 2 bars)</words></direction-type></direction><note><pitch><step>D</step><octave>2</octave></pitch><duration>48</duration><voice>1</voice></note></measure><measure number="34"><note><pitch><step>C</step><octave>2</octave></pitch><duration>48</duration><voice>1</voice></note></measure><measure number="35"><direction placement="above"><direction-type><words>Outro Pocket (outro, 4 bars)</words></direction-type></direction><note><pitch><step>C</step><octave>2</octave></pitch><duration>48</duration><voice>1</voice></note></measure><measure number="36"><note><pitch><step>C</step><octave>2</octave></pitch><duration>48</duration><voice>1</voice></note></measure><measure number="37"><note><pitch><step>D</step><octave>2</octave></pitch><duration>48</duration><voice>1</voice></note></measure><measure number="38"><note><pitch><step>C</step><octave>2</octave></pitch><duration>48</duration><voice>1</voice></note></measure></part></score-partwise>